<svg width="2971" height="340" viewBox="0 0 2971 340" fill="none" xmlns="http://www.w3.org/2000/svg">
<path d="M299 244C292.667 265.333 282.667 283.167 269 297.5C255.333 311.833 239.167 322.5 220.5 329.5C201.833 336.5 181.333 340 159 340C126.333 340 98 333.167 74 319.5C50.3333 305.833 32 286.333 19 261C6.33334 235.667 1.54972e-06 205.333 1.54972e-06 170C1.54972e-06 134.667 6.33334 104.333 19 79C32 53.6667 50.3333 34.1667 74 20.5C98 6.83333 126 -8.34465e-06 158 -8.34465e-06C180.667 -8.34465e-06 201.167 3.16666 219.5 9.49999C237.833 15.5 253.333 24.8333 266 37.5C279 50.1666 288.5 66.1667 294.5 85.5L232 112C226.333 92 217.667 77.8333 206 69.5C194.333 60.8333 179.333 56.5 161 56.5C143 56.5 127.167 60.8333 113.5 69.5C100.167 78.1667 89.8333 91 82.5 108C75.1667 124.667 71.5 145.333 71.5 170C71.5 194.333 74.8333 215 81.5 232C88.5 249 98.6667 261.833 112 270.5C125.333 279.167 141.667 283.5 161 283.5C179 283.5 194.5 278.667 207.5 269C220.833 259.333 230.167 244.667 235.5 225L299 244ZM500.309 -8.34465e-06C532.975 -8.34465e-06 561.142 6.83333 584.809 20.5C608.475 34.1667 626.642 53.6667 639.309 79C652.309 104.333 658.809 134.667 658.809 170C658.809 205.333 652.309 235.667 639.309 261C626.642 286.333 608.475 305.833 584.809 319.5C561.142 333.167 532.975 340 500.309 340C467.642 340 439.309 333.167 415.309 319.5C391.642 305.833 373.309 286.333 360.309 261C347.642 235.667 341.309 205.333 341.309 170C341.309 134.667 347.642 104.333 360.309 79C373.309 53.6667 391.642 34.1667 415.309 20.5C439.309 6.83333 467.642 -8.34465e-06 500.309 -8.34465e-06ZM500.309 56.5C481.642 56.5 465.809 60.8333 452.809 69.5C439.809 78.1667 429.809 91 422.809 108C416.142 124.667 412.809 145.333 412.809 170C412.809 194.333 416.142 215 422.809 232C429.809 249 439.809 261.833 452.809 270.5C465.809 279.167 481.642 283.5 500.309 283.5C518.642 283.5 534.309 279.167 547.309 270.5C560.309 261.833 570.142 249 576.809 232C583.809 215 587.309 194.333 587.309 170C587.309 145.333 583.809 124.667 576.809 108C570.142 91 560.309 78.1667 547.309 69.5C534.309 60.8333 518.642 56.5 500.309 56.5ZM855.914 4.99999C907.581 4.99999 947.581 19.3333 975.914 48C1004.25 76.3333 1018.41 117 1018.41 170C1018.41 222.667 1004.25 263.333 975.914 292C947.581 320.667 907.581 335 855.914 335H728.414V4.99999H855.914ZM852.414 280C883.747 280 907.247 270.667 922.914 252C938.914 233 946.914 205.667 946.914 170C946.914 134.333 938.914 107.167 922.914 88.5C907.247 69.5 883.747 60 852.414 60H797.414V280H852.414ZM1087.79 335V4.99999H1335.29V60.5H1156.79V142.5H1297.29V195.5H1156.79V279.5H1342.29V335H1087.79ZM1524.7 -8.34465e-06C1554.7 -8.34465e-06 1581.03 5.16665 1603.7 15.5C1626.36 25.8333 1645.7 41.1666 1661.7 61.5L1623.2 106C1609.53 88.6666 1594.53 76 1578.2 68C1562.2 59.6667 1543.53 55.5 1522.2 55.5C1508.2 55.5 1496.53 57.3333 1487.2 61C1478.2 64.6667 1471.53 69.5 1467.2 75.5C1463.2 81.5 1461.2 88.1666 1461.2 95.5C1461.2 104.5 1464.7 112.167 1471.7 118.5C1478.7 124.5 1490.7 129.5 1507.7 133.5L1569.2 147.5C1601.86 154.833 1625.2 165.833 1639.2 180.5C1653.53 194.833 1660.7 213.5 1660.7 236.5C1660.7 258.167 1655.03 276.833 1643.7 292.5C1632.36 307.833 1616.53 319.667 1596.2 328C1575.86 336 1552.53 340 1526.2 340C1503.2 340 1482.03 337.333 1462.7 332C1443.7 326.333 1426.7 318.667 1411.7 309C1396.7 299.333 1384.2 288.167 1374.2 275.5L1413.2 229C1420.86 239.667 1430.36 249.167 1441.7 257.5C1453.03 265.833 1465.86 272.5 1480.2 277.5C1494.86 282.167 1510.2 284.5 1526.2 284.5C1539.86 284.5 1551.36 283 1560.7 280C1570.36 276.667 1577.53 272.167 1582.2 266.5C1587.2 260.5 1589.7 253.333 1589.7 245C1589.7 236.333 1586.7 229 1580.7 223C1575.03 216.667 1564.36 211.833 1548.7 208.5L1481.7 193.5C1462.36 188.833 1445.7 182.833 1431.7 175.5C1418.03 167.833 1407.53 158.167 1400.2 146.5C1393.2 134.5 1389.7 120.333 1389.7 104C1389.7 84.3333 1395.03 66.6667 1405.7 51C1416.36 35.3333 1431.7 23 1451.7 14C1472.03 4.66666 1496.36 -8.34465e-06 1524.7 -8.34465e-06ZM1977.7 4.99999V60.5H1867.2V335H1798.2V60.5H1687.2V4.99999H1977.7ZM2034.08 335V4.99999H2281.58V60.5H2103.08V142.5H2243.58V195.5H2103.08V279.5H2288.58V335H2034.08ZM2628.59 244C2622.26 265.333 2612.26 283.167 2598.59 297.5C2584.92 311.833 2568.76 322.5 2550.09 329.5C2531.42 336.5 2510.92 340 2488.59 340C2455.92 340 2427.59 333.167 2403.59 319.5C2379.92 305.833 2361.59 286.333 2348.59 261C2335.92 235.667 2329.59 205.333 2329.59 170C2329.59 134.667 2335.92 104.333 2348.59 79C2361.59 53.6667 2379.92 34.1667 2403.59 20.5C2427.59 6.83333 2455.59 -8.34465e-06 2487.59 -8.34465e-06C2510.26 -8.34465e-06 2530.76 3.16666 2549.09 9.49999C2567.42 15.5 2582.92 24.8333 2595.59 37.5C2608.59 50.1666 2618.09 66.1667 2624.09 85.5L2561.59 112C2555.92 92 2547.26 77.8333 2535.59 69.5C2523.92 60.8333 2508.92 56.5 2490.59 56.5C2472.59 56.5 2456.76 60.8333 2443.09 69.5C2429.76 78.1667 2419.42 91 2412.09 108C2404.76 124.667 2401.09 145.333 2401.09 170C2401.09 194.333 2404.42 215 2411.09 232C2418.09 249 2428.26 261.833 2441.59 270.5C2454.92 279.167 2471.26 283.5 2490.59 283.5C2508.59 283.5 2524.09 278.667 2537.09 269C2550.42 259.333 2559.76 244.667 2565.09 225L2628.59 244ZM2970.9 4.99999V335H2901.9V4.99999H2970.9ZM2756.4 4.99999V335H2687.4V4.99999H2756.4ZM2937.9 140.5V196H2721.9V140.5H2937.9Z" fill="#040C15"/>
</svg>
