<svg width="2653" height="340" viewBox="0 0 2653 340" fill="none" xmlns="http://www.w3.org/2000/svg">
<path d="M299 244C292.667 265.333 282.667 283.167 269 297.5C255.333 311.833 239.167 322.5 220.5 329.5C201.833 336.5 181.333 340 159 340C126.333 340 98 333.167 74 319.5C50.3333 305.833 32 286.333 19 261C6.33334 235.667 1.54972e-06 205.333 1.54972e-06 170C1.54972e-06 134.667 6.33334 104.333 19 79C32 53.6667 50.3333 34.1667 74 20.5C98 6.83333 126 -8.34465e-06 158 -8.34465e-06C180.667 -8.34465e-06 201.167 3.16666 219.5 9.49999C237.833 15.5 253.333 24.8333 266 37.5C279 50.1666 288.5 66.1667 294.5 85.5L232 112C226.333 92 217.667 77.8333 206 69.5C194.333 60.8333 179.333 56.5 161 56.5C143 56.5 127.167 60.8333 113.5 69.5C100.167 78.1667 89.8333 91 82.5 108C75.1667 124.667 71.5 145.333 71.5 170C71.5 194.333 74.8333 215 81.5 232C88.5 249 98.6667 261.833 112 270.5C125.333 279.167 141.667 283.5 161 283.5C179 283.5 194.5 278.667 207.5 269C220.833 259.333 230.167 244.667 235.5 225L299 244ZM500.309 -8.34465e-06C532.975 -8.34465e-06 561.142 6.83333 584.809 20.5C608.475 34.1667 626.642 53.6667 639.309 79C652.309 104.333 658.809 134.667 658.809 170C658.809 205.333 652.309 235.667 639.309 261C626.642 286.333 608.475 305.833 584.809 319.5C561.142 333.167 532.975 340 500.309 340C467.642 340 439.309 333.167 415.309 319.5C391.642 305.833 373.309 286.333 360.309 261C347.642 235.667 341.309 205.333 341.309 170C341.309 134.667 347.642 104.333 360.309 79C373.309 53.6667 391.642 34.1667 415.309 20.5C439.309 6.83333 467.642 -8.34465e-06 500.309 -8.34465e-06ZM500.309 56.5C481.642 56.5 465.809 60.8333 452.809 69.5C439.809 78.1667 429.809 91 422.809 108C416.142 124.667 412.809 145.333 412.809 170C412.809 194.333 416.142 215 422.809 232C429.809 249 439.809 261.833 452.809 270.5C465.809 279.167 481.642 283.5 500.309 283.5C518.642 283.5 534.309 279.167 547.309 270.5C560.309 261.833 570.142 249 576.809 232C583.809 215 587.309 194.333 587.309 170C587.309 145.333 583.809 124.667 576.809 108C570.142 91 560.309 78.1667 547.309 69.5C534.309 60.8333 518.642 56.5 500.309 56.5ZM855.914 4.99999C907.581 4.99999 947.581 19.3333 975.914 48C1004.25 76.3333 1018.41 117 1018.41 170C1018.41 222.667 1004.25 263.333 975.914 292C947.581 320.667 907.581 335 855.914 335H728.414V4.99999H855.914ZM852.414 280C883.747 280 907.247 270.667 922.914 252C938.914 233 946.914 205.667 946.914 170C946.914 134.333 938.914 107.167 922.914 88.5C907.247 69.5 883.747 60 852.414 60H797.414V280H852.414ZM1206.34 -8.34465e-06C1236.34 -8.34465e-06 1262.67 5.16665 1285.34 15.5C1308 25.8333 1327.34 41.1666 1343.34 61.5L1304.84 106C1291.17 88.6666 1276.17 76 1259.84 68C1243.84 59.6667 1225.17 55.5 1203.84 55.5C1189.84 55.5 1178.17 57.3333 1168.84 61C1159.84 64.6667 1153.17 69.5 1148.84 75.5C1144.84 81.5 1142.84 88.1666 1142.84 95.5C1142.84 104.5 1146.34 112.167 1153.34 118.5C1160.34 124.5 1172.34 129.5 1189.34 133.5L1250.84 147.5C1283.5 154.833 1306.84 165.833 1320.84 180.5C1335.17 194.833 1342.34 213.5 1342.34 236.5C1342.34 258.167 1336.67 276.833 1325.34 292.5C1314 307.833 1298.17 319.667 1277.84 328C1257.5 336 1234.17 340 1207.84 340C1184.84 340 1163.67 337.333 1144.34 332C1125.34 326.333 1108.34 318.667 1093.34 309C1078.34 299.333 1065.84 288.167 1055.84 275.5L1094.84 229C1102.5 239.667 1112 249.167 1123.34 257.5C1134.67 265.833 1147.5 272.5 1161.84 277.5C1176.5 282.167 1191.84 284.5 1207.84 284.5C1221.5 284.5 1233 283 1242.34 280C1252 276.667 1259.17 272.167 1263.84 266.5C1268.84 260.5 1271.34 253.333 1271.34 245C1271.34 236.333 1268.34 229 1262.34 223C1256.67 216.667 1246 211.833 1230.34 208.5L1163.34 193.5C1144 188.833 1127.34 182.833 1113.34 175.5C1099.67 167.833 1089.17 158.167 1081.84 146.5C1074.84 134.5 1071.34 120.333 1071.34 104C1071.34 84.3333 1076.67 66.6667 1087.34 51C1098 35.3333 1113.34 23 1133.34 14C1153.67 4.66666 1178 -8.34465e-06 1206.34 -8.34465e-06ZM1659.34 4.99999V60.5H1548.84V335H1479.84V60.5H1368.84V4.99999H1659.34ZM1715.72 335V4.99999H1963.22V60.5H1784.72V142.5H1925.22V195.5H1784.72V279.5H1970.22V335H1715.72ZM2310.23 244C2303.9 265.333 2293.9 283.167 2280.23 297.5C2266.56 311.833 2250.4 322.5 2231.73 329.5C2213.06 336.5 2192.56 340 2170.23 340C2137.56 340 2109.23 333.167 2085.23 319.5C2061.56 305.833 2043.23 286.333 2030.23 261C2017.56 235.667 2011.23 205.333 2011.23 170C2011.23 134.667 2017.56 104.333 2030.23 79C2043.23 53.6667 2061.56 34.1667 2085.23 20.5C2109.23 6.83333 2137.23 -8.34465e-06 2169.23 -8.34465e-06C2191.9 -8.34465e-06 2212.4 3.16666 2230.73 9.49999C2249.06 15.5 2264.56 24.8333 2277.23 37.5C2290.23 50.1666 2299.73 66.1667 2305.73 85.5L2243.23 112C2237.56 92 2228.9 77.8333 2217.23 69.5C2205.56 60.8333 2190.56 56.5 2172.23 56.5C2154.23 56.5 2138.4 60.8333 2124.73 69.5C2111.4 78.1667 2101.06 91 2093.73 108C2086.4 124.667 2082.73 145.333 2082.73 170C2082.73 194.333 2086.06 215 2092.73 232C2099.73 249 2109.9 261.833 2123.23 270.5C2136.56 279.167 2152.9 283.5 2172.23 283.5C2190.23 283.5 2205.73 278.667 2218.73 269C2232.06 259.333 2241.4 244.667 2246.73 225L2310.23 244ZM2652.54 4.99999V335H2583.54V4.99999H2652.54ZM2438.04 4.99999V335H2369.04V4.99999H2438.04ZM2619.54 140.5V196H2403.54V140.5H2619.54Z" fill="#040C15"/>
</svg>
